<svg id="design" xmlns="http://www.w3.org/2000/svg" viewBox="0 0 35.09 37.94"><defs><style>.cls-1{fill:#172c3f;}.cls-2{fill:#fff;}.cls-3{fill:#825530;}.cls-4{fill:#068445;}</style></defs><path class="cls-1" d="M26.46,25.14S24.61,25,24,25s-1.63.08-2.81.17c-6.71,1.43-13.68,2.44-20.39.46-.13-.86-.23-1.72-.29-2.57S.36,21.35.35,20.49s0-1.57,0-2.35S0,12.46,0,11.68C.36,7.59,0,7.75.87,3.51A2.75,2.75,0,0,1,3.23,1C5.31.88,7.35.63,9.45.48A88.41,88.41,0,0,1,25,.27c.7.07,1.39.16,2.07.26C29,6,30.31,13.25,28.68,18.59c-.45,1.47-3.87,1.26-3.73,2.77A6.34,6.34,0,0,0,26.46,25.14Z"/><path class="cls-2" d="M15.52,37.59l9.17-15.27c-.19-.1-.32-.19-.46-.25l-1.85-.74a1.47,1.47,0,0,1-.69-.41c0-.33.31-.45.52-.62l5.7-4.68c.51-.41,1-.84,1.54-1.25A3.77,3.77,0,0,1,30,14a3.35,3.35,0,0,1,.34.49q2.29,4.56,4.58,9.13a.87.87,0,0,1,.16.81,7.73,7.73,0,0,1-1.79-.34l-.49.38-15.92,13-.32.26C16.13,38,16.07,38,15.52,37.59ZM23,20.78l.92.37c.44.18.88.34,1.31.53a.61.61,0,0,1,.31.82,6.48,6.48,0,0,1-.33.57l-4,6.71Q20,31.69,18.88,33.59c-.09.15-.28.29-.15.54a2.73,2.73,0,0,0,.25-.2l6.18-6.44c1.47-1.53,2.95-3,4.4-4.59a.91.91,0,0,1,1-.29c.93.28,1.87.52,2.8.76a3.8,3.8,0,0,0,.5.06c-.25-.73-3.76-7.68-4.12-8.17C29.22,15.57,23.69,20.07,23,20.78Zm6.52,5-.58-.24c-.16-.08-.31-.18-.49-.28l-.66.68a5.27,5.27,0,0,1,.26.55,2,2,0,0,1,0,.43l-.84-.31c-.22.12-.33.28-.21.53s.22.33,0,.57l-.72-.17c-.77.67-4.2,4.28-4.55,4.77.54-.28,5-3.88,9.91-7.95.16-.13.31-.29.51-.48a9.82,9.82,0,0,0-1.72-.49c-.23-.05-.37.09-.43.31.2.29.65.49.38.95-.42.09-.64-.32-1-.35l-.3.35C29.21,25,29.64,25.21,29.51,25.77Z"/><path class="cls-3" d="M23,20.78c.7-.71,6.23-5.21,6.78-5.52.36.49,3.87,7.44,4.12,8.17a3.8,3.8,0,0,1-.5-.06c-.93-.24-1.87-.48-2.8-.76a.91.91,0,0,0-1,.29c-1.45,1.54-2.93,3.06-4.4,4.59L19,33.93a2.73,2.73,0,0,1-.25.2c-.13-.25.06-.39.15-.54q1.14-1.91,2.29-3.81l4-6.71a6.48,6.48,0,0,0,.33-.57.61.61,0,0,0-.31-.82c-.43-.19-.87-.35-1.31-.53Zm5-2.93a1.57,1.57,0,0,0-1.31.66.42.42,0,0,0-.13.45c.09.22.27.24.48.22a.7.7,0,0,1,.17.06c-.05.12-.11.24-.16.37a.28.28,0,0,0,.08.37.33.33,0,0,0,.39,0,2,2,0,0,0,.91-1,1.19,1.19,0,0,0,0-.38l-.53-.09Z"/><path class="cls-3" d="M29.51,25.77c.13-.56-.3-.77-.44-1.13l.3-.35c.4,0,.62.44,1,.35.27-.46-.18-.66-.38-.95.06-.22.2-.36.43-.31a9.82,9.82,0,0,1,1.72.49c-.2.19-.35.35-.51.48C26.79,28.42,22.3,32,21.76,32.3c.35-.49,3.78-4.1,4.55-4.77l.72.17c.18-.24,0-.4,0-.57s0-.41.21-.53l.84.31a2,2,0,0,0,0-.43,5.27,5.27,0,0,0-.26-.55l.66-.68c.18.1.33.2.49.28Z"/><path d="M28,17.85l-.09.63.53.09a1.19,1.19,0,0,1,0,.38,2,2,0,0,1-.91,1,.33.33,0,0,1-.39,0,.28.28,0,0,1-.08-.37c.05-.13.11-.25.16-.37a.7.7,0,0,0-.17-.06c-.21,0-.39,0-.48-.22a.42.42,0,0,1,.13-.45A1.57,1.57,0,0,1,28,17.85Z"/><path class="cls-2" d="M11.4,12a3.72,3.72,0,0,0-1.71-.63c-.18,0-.37-.05-.55-.09a1,1,0,0,1-.72-.76.73.73,0,0,1,.15-.66,51.32,51.32,0,0,1,4.84-6A3.65,3.65,0,0,0,14,3.35,1,1,0,0,1,15.08,3a6.47,6.47,0,0,1,1.67.46,3.46,3.46,0,0,1,2.11,2.64c.08.52.17,1,.26,1.55a3.45,3.45,0,0,0,2.12,2.64,7.1,7.1,0,0,0,3.78.57c1.18-.12,2.35-.31,3.52-.46l4.78-.63h.16a.4.4,0,0,1,.4.58,53.35,53.35,0,0,0-2.77,8.13c-.27.93-.48,1.87-.72,2.8-.14.53-.28.65-.83.6s-1.26-.15-1.89-.23-1.2-.16-1.8-.22a4.48,4.48,0,0,0-.64,0c-.09.29-.18.56-.24.84a.77.77,0,0,1-.57.58,18.36,18.36,0,0,1-2.85.64,8.43,8.43,0,0,1-2.13,0,7,7,0,0,1-2.65-.94,15.24,15.24,0,0,1-2.7-2.16c-.68-.66-1.34-1.33-2-2a11.62,11.62,0,0,0-1.16-.94,5.94,5.94,0,0,0-2-1,3.7,3.7,0,0,1-.4-.16.61.61,0,0,1,.12-.62c.17-.26.35-.52.54-.77L11,12.53Zm0-1c.13.09.18.14.25.18a9,9,0,0,1,3.91,4c.17.32.36.64.54,1a6.14,6.14,0,0,0,2,2.14,12.16,12.16,0,0,0,2.62,1.26,25.21,25.21,0,0,0,4.85,1.09,3.77,3.77,0,0,0,1.28.13,6.31,6.31,0,0,1,.55-.9,3,3,0,0,1,.76-.54,1.71,1.71,0,0,1,1-.27c.33,0,.66.06,1,.09l2.15-6.94c-.8-.16-1.09-.8-1.39-1.41a5.09,5.09,0,0,0-.58,0L27,11.29a16.22,16.22,0,0,1-3.94.23,6.17,6.17,0,0,1-2.55-.75,4.19,4.19,0,0,1-2.17-3c-.07-.36-.1-.73-.17-1.08a6.06,6.06,0,0,0-.3-1.13,2.13,2.13,0,0,0-1.36-1.29,2.62,2.62,0,0,1-3.2.73l-1,1.12c-.35.4-.68.8-1,1.21a11.34,11.34,0,0,0-.92,1.19A2.4,2.4,0,0,1,11.36,11ZM24.47,21.26a4.16,4.16,0,0,0-.49-.17l-1-.19a18.1,18.1,0,0,1-4.4-1.48,7.6,7.6,0,0,1-3.38-3.28c-.25-.46-.51-.92-.77-1.37a7.35,7.35,0,0,0-1.95-2.13,3.85,3.85,0,0,0-.38-.23A24,24,0,0,0,9.5,15.79s.06.09.1.11a10,10,0,0,1,3.3,2.25l2,1.91a12.38,12.38,0,0,0,2.36,1.84,5.87,5.87,0,0,0,2.59.87,10.92,10.92,0,0,0,4.28-.6,1.15,1.15,0,0,0,.2-.15ZM29.7,21a3.72,3.72,0,0,0,.19-1.14,1.23,1.23,0,0,0-1.41,0,1,1,0,0,0-.69,1A14.36,14.36,0,0,0,29.7,21ZM9.17,10.32a1.52,1.52,0,0,0,1.4.32,1.4,1.4,0,0,0-.6-1.5A6.14,6.14,0,0,0,9.17,10.32Zm5.34-6.68-.57.75a1.07,1.07,0,0,0,.86.13,1.1,1.1,0,0,0,.66-.23,3.48,3.48,0,0,0,.32-.41Zm18.38,6.89a3.7,3.7,0,0,0-1.1.1,1,1,0,0,0,.76.88A2.3,2.3,0,0,0,32.89,10.53Z"/><path class="cls-4" d="M11.36,11a2.4,2.4,0,0,0-.94-2.49,11.34,11.34,0,0,1,.92-1.19c.33-.41.66-.81,1-1.21l1-1.12a2.62,2.62,0,0,0,3.2-.73,2.13,2.13,0,0,1,1.36,1.29,6.06,6.06,0,0,1,.3,1.13c.07.35.1.72.17,1.08a4.19,4.19,0,0,0,2.17,3,6.17,6.17,0,0,0,2.55.75A16.22,16.22,0,0,0,27,11.29l3.28-.51a5.09,5.09,0,0,1,.58,0c.3.61.59,1.25,1.39,1.41L30.12,19.1c-.32,0-.65-.07-1-.09a1.71,1.71,0,0,0-1,.27,3,3,0,0,0-.76.54,6.31,6.31,0,0,0-.55.9,3.77,3.77,0,0,1-1.28-.13,25.21,25.21,0,0,1-4.85-1.09,12.16,12.16,0,0,1-2.62-1.26,6.14,6.14,0,0,1-2-2.14c-.18-.32-.37-.64-.54-1a9,9,0,0,0-3.91-4C11.54,11.14,11.49,11.09,11.36,11Zm11.72,3a2.32,2.32,0,0,0-.78-1.81,1.79,1.79,0,0,0-1.37-.5,2.4,2.4,0,0,0-1.43.59,3.52,3.52,0,0,0-1.2,1.88,3.25,3.25,0,0,0-.08,1.16,1.78,1.78,0,0,0,2.07,1.57,4.85,4.85,0,0,0,.55-.09A3,3,0,0,0,23.08,14Zm-9.5-5.59s0,0,.06,0l.31,0c1,0,1.34.27,1.53,1.19a3.23,3.23,0,0,0,.24.82,1.12,1.12,0,0,0,1.61.44.24.24,0,0,0,0-.4,1.28,1.28,0,0,0-.43-.14.59.59,0,0,1-.59-.52c-.06-.23-.1-.46-.15-.68a1.87,1.87,0,0,0-2-1.45C13.73,7.81,13.62,7.94,13.58,8.45ZM24.4,15c.71,0,.71,0,1.14.42.06.05.11.11.17.17a1.47,1.47,0,0,0,2-.21.26.26,0,0,0,.07-.21.67.67,0,0,0-.18-.33c-.05,0-.19,0-.28,0s-.12.1-.19.14a.69.69,0,0,1-1-.1,2.63,2.63,0,0,0-.34-.33,2.4,2.4,0,0,0-.62-.31.58.58,0,0,0-.59.15A.46.46,0,0,0,24.4,15Z"/><path class="cls-4" d="M24.47,21.26,24.3,22a1.15,1.15,0,0,1-.2.15,10.92,10.92,0,0,1-4.28.6,5.87,5.87,0,0,1-2.59-.87,12.38,12.38,0,0,1-2.36-1.84l-2-1.91A10,10,0,0,0,9.6,15.9s-.06-.07-.1-.11a24,24,0,0,1,2.59-3.38,3.85,3.85,0,0,1,.38.23,7.35,7.35,0,0,1,1.95,2.13c.26.45.52.91.77,1.37a7.6,7.6,0,0,0,3.38,3.28A18.1,18.1,0,0,0,23,20.9l1,.19A4.16,4.16,0,0,1,24.47,21.26Z"/><path class="cls-4" d="M29.7,21a14.36,14.36,0,0,1-1.91-.15,1,1,0,0,1,.69-1,1.23,1.23,0,0,1,1.41,0A3.72,3.72,0,0,1,29.7,21Z"/><path class="cls-4" d="M9.17,10.32A6.14,6.14,0,0,1,10,9.14a1.4,1.4,0,0,1,.6,1.5A1.52,1.52,0,0,1,9.17,10.32Z"/><path class="cls-4" d="M14.51,3.64l1.27.24a3.48,3.48,0,0,1-.32.41,1.1,1.1,0,0,1-.66.23,1.07,1.07,0,0,1-.86-.13Z"/><path class="cls-4" d="M32.89,10.53a2.3,2.3,0,0,1-.34,1,1,1,0,0,1-.76-.88A3.7,3.7,0,0,1,32.89,10.53Z"/><path class="cls-2" d="M23.08,14a3,3,0,0,1-2.24,2.8,4.85,4.85,0,0,1-.55.09,1.78,1.78,0,0,1-2.07-1.57,3.25,3.25,0,0,1,.08-1.16,3.52,3.52,0,0,1,1.2-1.88,2.4,2.4,0,0,1,1.43-.59,1.79,1.79,0,0,1,1.37.5A2.32,2.32,0,0,1,23.08,14Zm-.76.09a1.66,1.66,0,0,0-.27-1,1.32,1.32,0,0,0-1.77-.52A2.63,2.63,0,0,0,19,15.16a1.16,1.16,0,0,0,1.15,1.06A2.14,2.14,0,0,0,22.32,14.13Z"/><path class="cls-2" d="M13.58,8.45c0-.51.15-.64.54-.68a1.87,1.87,0,0,1,2,1.45c.05.22.09.45.15.68a.59.59,0,0,0,.59.52,1.28,1.28,0,0,1,.43.14.24.24,0,0,1,0,.4,1.12,1.12,0,0,1-1.61-.44,3.23,3.23,0,0,1-.24-.82c-.19-.92-.56-1.2-1.53-1.19l-.31,0S13.6,8.46,13.58,8.45Z"/><path class="cls-2" d="M24.4,15a.46.46,0,0,1,.17-.59.58.58,0,0,1,.59-.15,2.4,2.4,0,0,1,.62.31,2.63,2.63,0,0,1,.34.33.69.69,0,0,0,1,.1c.07,0,.12-.12.19-.14s.23-.06.28,0a.67.67,0,0,1,.18.33.26.26,0,0,1-.07.21,1.47,1.47,0,0,1-2,.21c-.06-.06-.11-.12-.17-.17C25.11,15,25.11,15,24.4,15Z"/><path class="cls-4" d="M22.32,14.13a2.14,2.14,0,0,1-2.21,2.09A1.16,1.16,0,0,1,19,15.16a2.63,2.63,0,0,1,1.32-2.55,1.32,1.32,0,0,1,1.77.52A1.66,1.66,0,0,1,22.32,14.13Z"/></svg>