<svg id="Calque_1" data-name="Calque 1" xmlns="http://www.w3.org/2000/svg" viewBox="0 0 37.65 33.25"><defs><style>.cls-1{fill:#172c3f;}.cls-2{fill:#fff;}</style></defs><path class="cls-1" d="M26.46,25.14S24.61,25,24,25s-1.63.08-2.81.17c-6.71,1.43-13.68,2.44-20.39.46-.13-.86-.23-1.72-.29-2.57S.36,21.35.35,20.49s0-1.57,0-2.35S0,12.46,0,11.68C.36,7.59,0,7.75.87,3.51A2.75,2.75,0,0,1,3.23,1C5.31.88,7.35.63,9.45.48A88.41,88.41,0,0,1,25,.27c.7.07,1.39.16,2.07.26C29,6,30.31,13.25,28.68,18.59c-.45,1.47-3.87,1.26-3.73,2.77A6.34,6.34,0,0,0,26.46,25.14Z"/><path class="cls-2" d="M10.07,15.56a1.69,1.69,0,0,1,.27-.13c2.12-.6,4.25-1.12,6.41-1.53,2.48-.46,5-1,7.44-1.4,2.3-.42,4.6-.8,6.9-1.18a9.29,9.29,0,0,1,1.39-.1,1.36,1.36,0,0,1,1.46,1.09,9.26,9.26,0,0,1,.25,1c.64,3.23,1.29,6.46,1.91,9.69.21,1.11.38,2.22.52,3.34a5.57,5.57,0,0,1,0,1.47,2.09,2.09,0,0,1-1.37,1.72,12.4,12.4,0,0,1-2,.62c-1.75.32-3.51.63-5.28.86-2.75.36-5.5.65-8.26.95a22.29,22.29,0,0,1-3.37.25h-.49a2.77,2.77,0,0,1-2.33-1.34,9,9,0,0,1-.68-1.31,22.71,22.71,0,0,1-1.25-4.09,60.61,60.61,0,0,1-1.22-7.23c-.07-.62-.16-1.25-.24-1.87A1.5,1.5,0,0,1,10.07,15.56Zm5.38,15.81a8.42,8.42,0,0,0,1.08.11c.63,0,1.26-.08,1.89-.15,2.21-.24,4.41-.51,6.62-.75,2.43-.25,4.85-.56,7.25-1,.8-.16,1.59-.4,2.38-.63a1.55,1.55,0,0,0,.94-.65,2.56,2.56,0,0,0-.32-.28,19.16,19.16,0,0,1-2.75-2.09A13,13,0,0,0,31.39,25,26.76,26.76,0,0,1,28,22a9.19,9.19,0,0,0-.73-.67,3.07,3.07,0,0,0-.42-.25,4.33,4.33,0,0,1-.42.52,8.72,8.72,0,0,1-.87.74,2.47,2.47,0,0,1-2,.42,6.92,6.92,0,0,1-1.25-.38c-.76-.31-1.51-.66-2.26-1l-.68-.29c-1.28,3.34-2.55,6.64-3.81,9.94A1.9,1.9,0,0,0,15.45,31.37ZM11.19,16.1a7.44,7.44,0,0,0,1.11.66c3.14,1.5,6.27,3,9.42,4.5a14.37,14.37,0,0,0,1.7.62,1.88,1.88,0,0,0,1.85-.34,3.72,3.72,0,0,0,.56-.48c.48-.54,1-1.07,1.38-1.64,1-1.29,1.93-2.6,2.88-3.91.32-.44.6-.91.9-1.38s.45-.74.69-1.11a3.78,3.78,0,0,0,.47-.92,2.38,2.38,0,0,0-.43,0l-2.11.34c-4.05.67-8.11,1.35-12.14,2.17-1.91.39-3.82.75-5.69,1.31C11.63,15.93,11.48,16,11.19,16.1Zm7.35,4.6c-2.52-1.25-5-2.47-7.49-3.68A.09.09,0,0,0,11,17a.1.1,0,0,0-.07,0,.21.21,0,0,0,0,.07c.24,2.15.51,4.3.94,6.42a33.36,33.36,0,0,0,1.28,4.93,13.6,13.6,0,0,0,.74,1.65,1.89,1.89,0,0,0,.81.89A106.92,106.92,0,0,0,18.54,20.7ZM33.2,12.32a4.55,4.55,0,0,0-.58.56,15.49,15.49,0,0,0-.88,1.39A24,24,0,0,1,30,16.88c-.79,1.05-1.56,2.12-2.34,3.18-.08.11-.14.23-.21.34.51.5,1,1,1.48,1.46a21.76,21.76,0,0,0,2.22,2c.78.6,1.53,1.25,2.3,1.86s1.36,1,2.05,1.52a2.55,2.55,0,0,0,.4.19,2.77,2.77,0,0,0,0-.47c-.16-1.17-.28-2.34-.5-3.5-.62-3.26-1.27-6.51-1.91-9.76C33.45,13.26,33.33,12.87,33.2,12.32Z"/><path class="cls-2" d="M16.64,33.25h-.91a3.75,3.75,0,0,1-3.12-1.79A10.3,10.3,0,0,1,11.85,30a24.21,24.21,0,0,1-1.31-4.27,61,61,0,0,1-1.23-7.34c0-.37-.09-.75-.14-1.11s-.07-.5-.1-.75c0,0,0-.07,0-.11a2.13,2.13,0,0,1,.12-1.25l.14-.33.32-.16,0,0a3.66,3.66,0,0,1,.41-.18c2.36-.66,4.48-1.17,6.5-1.54l3-.57L24,11.52c2.25-.4,4.47-.77,6.92-1.17a8.18,8.18,0,0,1,1.57-.12,2.71,2.71,0,0,1,1.19.27l.06-.06,0,.1A2.47,2.47,0,0,1,34.88,12a11.24,11.24,0,0,1,.29,1.15l.32,1.64c.53,2.64,1.07,5.37,1.58,8.06.21,1.07.39,2.21.53,3.4a6.37,6.37,0,0,1,0,1.74,3.06,3.06,0,0,1-2,2.5,12.62,12.62,0,0,1-2.21.66c-1.57.3-3.44.63-5.33.87-2.29.3-4.63.56-6.88.81l-1.4.15-.54.06A21.23,21.23,0,0,1,16.64,33.25Zm3.25-10.86-.1.26c-1,2.57-2,5.21-3,7.82.45,0,.95-.06,1.53-.12L21,30l3.92-.44c2-.21,4.55-.51,7.16-1,.55-.11,1.09-.26,1.65-.43a21,21,0,0,1-1.87-1.51,12.77,12.77,0,0,0-1.08-.87,27.56,27.56,0,0,1-3.52-3.11L27,22.39a8.84,8.84,0,0,1-.87.73,3.44,3.44,0,0,1-2.83.59,8.87,8.87,0,0,1-1.42-.43c-.54-.22-1.07-.46-1.58-.7Zm-7.84-3.78c.18,1.5.41,3.13.74,4.76A33.14,33.14,0,0,0,14,28.15a10.15,10.15,0,0,0,.4.94c.9-2.23,2.39-6.2,2.94-7.87Zm16.7,1.66c.31.29.61.59.91.89A20.92,20.92,0,0,0,31.78,23L33,24l1.13.92.66.5c-.08-.6-.16-1.21-.28-1.8-.49-2.63-1-5.31-1.54-7.9-.07-.38-.15-.75-.22-1.12l-.09.17a23.75,23.75,0,0,1-1.8,2.72c-.67.9-1.35,1.83-2,2.73ZM13.8,16.38l.87.42c2.45,1.17,5,2.39,7.47,3.57a10.06,10.06,0,0,0,1.14.42l.46.16a.91.91,0,0,0,.94-.2l0,0a2.88,2.88,0,0,0,.39-.33l.14-.16c.43-.48.83-.93,1.19-1.41,1-1.32,2-2.66,2.86-3.9.23-.31.44-.65.66-1l.21-.33a3.21,3.21,0,0,0,.19-.31l-.57.1c-3.75.62-8,1.33-12.1,2.16l-.73.15C15.9,15.91,14.84,16.13,13.8,16.38Z"/><path class="cls-2" d="M18,27.49a1.12,1.12,0,0,1-.22-.25.51.51,0,0,1,0-.32c.17-.46.34-.92.53-1.37a1.38,1.38,0,0,1,.28-.4.23.23,0,0,1,.4.07,1.06,1.06,0,0,1,.07.55c-.16.49-.36,1-.56,1.45A.46.46,0,0,1,18,27.49Z"/><path class="cls-2" d="M18.89,27.57c.29-.74.44-1.5,1.11-1.94a.37.37,0,0,1,.22.44,4.86,4.86,0,0,1-.55,1.62C19.54,28,19.32,27.92,18.89,27.57Z"/><path class="cls-2" d="M20.05,19.61a1.11,1.11,0,0,1,.86,0c.79.21,1.59.4,2.38.62a1.45,1.45,0,0,0,1.5-.42c.34-.35.67-.73,1-1.11.47-.57.92-1.15,1.37-1.74a.81.81,0,0,1,.62-.35.23.23,0,0,1,.24.27,2.42,2.42,0,0,1-.29.58c-.65.84-1.34,1.66-2,2.51a2.48,2.48,0,0,1-2.81,1c-.82-.22-1.64-.44-2.46-.68C20.13,20.24,20.1,20.14,20.05,19.61Z"/><path class="cls-1" d="M32.54,25.9A13,13,0,0,0,31.39,25,26.76,26.76,0,0,1,28,22a9.19,9.19,0,0,0-.73-.67,3.07,3.07,0,0,0-.42-.25,4.33,4.33,0,0,1-.42.52,8.72,8.72,0,0,1-.87.74,2.47,2.47,0,0,1-2,.42,6.92,6.92,0,0,1-1.25-.38c-.76-.31-1.51-.67-2.26-1l-.68-.29c-1.28,3.34-2.55,6.64-3.81,9.94a1.9,1.9,0,0,0-.07.36,8.42,8.42,0,0,0,1.08.11c.63,0,1.26-.08,1.89-.15,2.21-.24,4.41-.51,6.62-.75,2.43-.25,4.85-.56,7.25-1,.8-.16,1.59-.4,2.38-.63a1.55,1.55,0,0,0,.94-.65,2.56,2.56,0,0,0-.32-.28A19.16,19.16,0,0,1,32.54,25.9ZM18,27.49a1.12,1.12,0,0,1-.22-.25.51.51,0,0,1,0-.32c.17-.46.34-.92.53-1.37a1.38,1.38,0,0,1,.28-.4.23.23,0,0,1,.4.07,1.06,1.06,0,0,1,.07.55c-.16.49-.36,1-.56,1.45A.46.46,0,0,1,18,27.49Zm2.19-1.42a4.86,4.86,0,0,1-.55,1.62c-.13.26-.35.23-.78-.12.29-.74.44-1.5,1.11-1.94A.37.37,0,0,1,20.22,26.07Z"/><path class="cls-1" d="M11.05,17A.09.09,0,0,0,11,17a.1.1,0,0,0-.07,0,.21.21,0,0,0,0,.07c.24,2.15.51,4.3.94,6.42a33.36,33.36,0,0,0,1.28,4.93,13.6,13.6,0,0,0,.74,1.65,1.89,1.89,0,0,0,.81.89A106.92,106.92,0,0,0,18.54,20.7C16,19.45,13.54,18.23,11.05,17Z"/><path class="cls-1" d="M35.94,26.92c-.16-1.17-.28-2.34-.5-3.5-.62-3.26-1.27-6.51-1.91-9.76-.08-.4-.2-.79-.33-1.34a4.55,4.55,0,0,0-.58.56,15.49,15.49,0,0,0-.88,1.39A24,24,0,0,1,30,16.88c-.79,1.05-1.56,2.12-2.34,3.18-.08.11-.14.23-.21.34.51.5,1,1,1.48,1.46a21.76,21.76,0,0,0,2.22,2c.78.6,1.53,1.25,2.3,1.86s1.36,1,2.05,1.52a2.55,2.55,0,0,0,.4.19A2.77,2.77,0,0,0,35.94,26.92Zm-4.29-4c-.37-.28-.72-.59-1.07-.9a.27.27,0,0,1,0-.37c.1-.15.3-.27.41-.18a4,4,0,0,1,1.48,1.55A.67.67,0,0,1,31.65,23Zm.5-1.12A2.29,2.29,0,0,1,31.3,21a.45.45,0,0,1,.09-.36.28.28,0,0,1,.29,0A2.78,2.78,0,0,1,32.92,22,.78.78,0,0,1,32.15,21.83Z"/><path class="cls-1" d="M21.72,21.26a14.37,14.37,0,0,0,1.7.62,1.88,1.88,0,0,0,1.85-.34,3.72,3.72,0,0,0,.56-.48c.48-.54,1-1.07,1.38-1.64,1-1.29,1.93-2.6,2.88-3.91.32-.44.6-.91.9-1.38s.45-.74.69-1.11a3.78,3.78,0,0,0,.47-.92,2.38,2.38,0,0,0-.43,0l-2.11.34c-4.05.67-8.11,1.35-12.14,2.17-1.91.39-3.82.75-5.69,1.31-.15,0-.3.1-.59.21a7.44,7.44,0,0,0,1.11.66C15.44,18.26,18.57,19.78,21.72,21.26Zm-.81-1.63c.79.21,1.59.4,2.38.62a1.45,1.45,0,0,0,1.5-.42c.34-.35.67-.73,1-1.11.47-.57.92-1.15,1.37-1.74a.81.81,0,0,1,.62-.35.23.23,0,0,1,.24.27,2.42,2.42,0,0,1-.29.58c-.65.84-1.34,1.66-2,2.51a2.48,2.48,0,0,1-2.81,1c-.82-.22-1.64-.44-2.46-.68-.32-.09-.35-.19-.4-.72A1.11,1.11,0,0,1,20.91,19.63Z"/><path class="cls-2" d="M32.43,23.05a.67.67,0,0,1-.78-.1c-.37-.28-.72-.59-1.07-.9a.27.27,0,0,1,0-.37c.1-.15.3-.27.41-.18A4,4,0,0,1,32.43,23.05Z"/><path class="cls-2" d="M32.92,22a.78.78,0,0,1-.77-.14A2.29,2.29,0,0,1,31.3,21a.45.45,0,0,1,.09-.36.28.28,0,0,1,.29,0A2.78,2.78,0,0,1,32.92,22Z"/></svg>