<svg id="design" xmlns="http://www.w3.org/2000/svg" viewBox="0 0 39.66 36.31"><defs><style>.cls-1{fill:#172c3f;}.cls-2{fill:#fff;}.cls-3{fill:#f79292;}</style></defs><path class="cls-1" d="M26.46,25.14S24.61,25,24,25s-1.63.08-2.81.17c-6.71,1.43-13.68,2.44-20.39.46-.13-.86-.23-1.72-.29-2.57S.36,21.35.35,20.49s0-1.57,0-2.35S0,12.46,0,11.68C.36,7.59,0,7.75.87,3.51A2.75,2.75,0,0,1,3.23,1C5.31.88,7.35.63,9.45.48A88.41,88.41,0,0,1,25,.27c.7.07,1.39.16,2.07.26C29,6,30.31,13.25,28.68,18.59c-.45,1.47-3.87,1.26-3.73,2.77A6.34,6.34,0,0,0,26.46,25.14Z"/><path class="cls-2" d="M29.14,29.34c-.22.36-.43.69-.62,1a16.57,16.57,0,0,1-3.17,4.08,12.88,12.88,0,0,1-1.81,1.32c-.49.31-.7.2-1-.33a3,3,0,0,1-.16-.4,14.42,14.42,0,0,0,2.09-5.86c-.32-.19-.57,0-.82,0a17,17,0,0,1-9-.14,9.9,9.9,0,0,1-4.19-2.32A7.39,7.39,0,0,1,7.92,21a7.21,7.21,0,0,1,.8-2.94A11.72,11.72,0,0,1,11.4,14.5,21.17,21.17,0,0,1,22.17,9.25a19.93,19.93,0,0,1,8.66.22,13.75,13.75,0,0,1,5.46,2.68,7.77,7.77,0,0,1,2.93,7.22,12.47,12.47,0,0,1-4.61,8.37,8.26,8.26,0,0,1-2.77,1.53A4.68,4.68,0,0,1,29.14,29.34Zm-4.73,4.25a2.44,2.44,0,0,0,1-.79,20.2,20.2,0,0,0,2.76-4c.38-.69.62-.83,1.33-.63a3.45,3.45,0,0,0,2.62-.31,9.47,9.47,0,0,0,1.8-1.11A11,11,0,0,0,38.22,19,6.41,6.41,0,0,0,37,14.41a8.23,8.23,0,0,0-2.06-1.93,13.35,13.35,0,0,0-3.39-1.61,18.92,18.92,0,0,0-9.33-.45,20.28,20.28,0,0,0-9.67,4.63,11.9,11.9,0,0,0-2.89,3.54,5.65,5.65,0,0,0,.58,6.32,8.19,8.19,0,0,0,3.44,2.6,13,13,0,0,0,3.64.92,14.72,14.72,0,0,0,7.09-.68,5.2,5.2,0,0,1,.67-.21c.39-.1.64.12.57.49a7.42,7.42,0,0,0-.17.92,12.51,12.51,0,0,1-.91,4A3.43,3.43,0,0,0,24.41,33.59Z"/><path class="cls-2" d="M23.09,36.31c-.41,0-.68-.31-.91-.67a1.2,1.2,0,0,1-.13-.31L21.93,35l.09-.15a14.67,14.67,0,0,0,2-5.37l-.14,0-.18.06a17.43,17.43,0,0,1-9.17-.14A10.18,10.18,0,0,1,10.19,27a7.76,7.76,0,0,1-2.65-6,7.6,7.6,0,0,1,.84-3.09,11.74,11.74,0,0,1,2.77-3.67,21.53,21.53,0,0,1,11-5.35,20.39,20.39,0,0,1,8.82.23,13.87,13.87,0,0,1,5.6,2.75,8.09,8.09,0,0,1,3.06,7.56A12.86,12.86,0,0,1,34.85,28,8.53,8.53,0,0,1,32,29.62a5,5,0,0,1-2.64.15l-.06.1c-.14.23-.28.46-.41.69a16.67,16.67,0,0,1-3.24,4.17,13.43,13.43,0,0,1-1.86,1.36A1.22,1.22,0,0,1,23.09,36.31Zm-.34-1.24v0a.77.77,0,0,0,.06.15c.24.39.24.39.53.21a13.06,13.06,0,0,0,1.75-1.28,16.05,16.05,0,0,0,3.09-4l.42-.7L29,28.9l.28.08a4.25,4.25,0,0,0,2.49-.07,7.92,7.92,0,0,0,2.64-1.46,12.09,12.09,0,0,0,4.47-8.12,7.37,7.37,0,0,0-2.79-6.89,13.22,13.22,0,0,0-5.31-2.61,19.7,19.7,0,0,0-8.5-.21,20.77,20.77,0,0,0-10.58,5.16,11.1,11.1,0,0,0-2.6,3.44A6.89,6.89,0,0,0,8.29,21a7,7,0,0,0,2.41,5.47,9.46,9.46,0,0,0,4,2.24,16.69,16.69,0,0,0,8.78.13l.13,0a1.07,1.07,0,0,1,1,.06l.19.12,0,.23A14.45,14.45,0,0,1,22.75,35.07Zm1.16-.89.17-.9a2.12,2.12,0,0,1,.11-.45,12.09,12.09,0,0,0,.88-3.89,3.39,3.39,0,0,1,.11-.65,1.65,1.65,0,0,0,.07-.32c0-.08,0-.09-.11-.07a5.1,5.1,0,0,0-.63.2,15,15,0,0,1-7.26.7,13.71,13.71,0,0,1-3.75-.94,8.58,8.58,0,0,1-3.59-2.73,6,6,0,0,1-.62-6.71,11.8,11.8,0,0,1,3-3.65,20.7,20.7,0,0,1,9.84-4.72,19.43,19.43,0,0,1,9.51.46,14,14,0,0,1,3.49,1.66,8.8,8.8,0,0,1,2.15,2A6.8,6.8,0,0,1,38.59,19a11.44,11.44,0,0,1-4.44,8.09,10,10,0,0,1-1.87,1.16,3.87,3.87,0,0,1-2.9.34c-.49-.15-.57-.13-.9.45a20.67,20.67,0,0,1-2.8,4l-.09.1a2.55,2.55,0,0,1-1.05.78Zm1.31-7a.79.79,0,0,1,.55.2.82.82,0,0,1,.22.75c0,.13,0,.26-.08.38a3.31,3.31,0,0,0-.09.5,12,12,0,0,1-.76,3.65l.06-.07a19.66,19.66,0,0,0,2.71-3.89c.42-.75.8-1.08,1.76-.81a3.12,3.12,0,0,0,2.35-.28,9.39,9.39,0,0,0,1.73-1.07,10.65,10.65,0,0,0,4.17-7.57,6,6,0,0,0-1.17-4.3,8,8,0,0,0-2-1.84,13.26,13.26,0,0,0-3.31-1.56,18.55,18.55,0,0,0-9.14-.44,19.84,19.84,0,0,0-9.49,4.55A11.16,11.16,0,0,0,10,18.76a5.31,5.31,0,0,0,.55,5.92,7.72,7.72,0,0,0,3.29,2.49,12.64,12.64,0,0,0,3.54.89,14.45,14.45,0,0,0,6.91-.66,5.88,5.88,0,0,1,.71-.23Z"/><path class="cls-2" d="M26.1,24.45,25,24a17.83,17.83,0,0,1-4.06-2.39,6.72,6.72,0,0,1-2.27-3.36,3,3,0,0,1,.09-2.08,2,2,0,0,1,1.71-1.26,2.75,2.75,0,0,1,1.92.39c.55.38,1.09.78,1.7,1.22.13-.2.29-.4.41-.62a3.29,3.29,0,0,1,2.6-1.62,2.57,2.57,0,0,1,3,2.66,4.82,4.82,0,0,1-.35,1.84,16,16,0,0,1-2,3.59A14.14,14.14,0,0,1,26.1,24.45Zm-.44-1.31a16.55,16.55,0,0,0,3.17-4.84,6,6,0,0,0,.28-1.38,1.2,1.2,0,0,0-.5-1.14,1.94,1.94,0,0,0-1.68-.33,2.91,2.91,0,0,0-1.46.95,1.67,1.67,0,0,0-.31,1.33.84.84,0,0,1-.46.92l-.78-.7a14.65,14.65,0,0,0-1.32-1.18,4.09,4.09,0,0,0-1.34-.7,1.29,1.29,0,0,0-1.67,1.59,4.48,4.48,0,0,0,1.1,2.18,8,8,0,0,0,2.1,1.71C23.74,22.09,24.71,22.61,25.66,23.14Z"/><path class="cls-1" d="M37,14.41a8.23,8.23,0,0,0-2.06-1.93,13.35,13.35,0,0,0-3.39-1.61,18.92,18.92,0,0,0-9.33-.45,20.28,20.28,0,0,0-9.67,4.63,11.9,11.9,0,0,0-2.89,3.54,5.65,5.65,0,0,0,.58,6.32,8.19,8.19,0,0,0,3.44,2.6,13,13,0,0,0,3.64.92,14.72,14.72,0,0,0,7.09-.68,5.2,5.2,0,0,1,.67-.21c.39-.1.64.12.57.49a7.42,7.42,0,0,0-.17.92,12.51,12.51,0,0,1-.91,4,3.43,3.43,0,0,0-.13.63,2.44,2.44,0,0,0,1-.79,20.2,20.2,0,0,0,2.76-4c.38-.69.62-.83,1.33-.63a3.45,3.45,0,0,0,2.62-.31,9.47,9.47,0,0,0,1.8-1.11A11,11,0,0,0,38.22,19,6.41,6.41,0,0,0,37,14.41Zm-7.21,4.35a16,16,0,0,1-2,3.59,14.14,14.14,0,0,1-1.65,2.1L25,24a17.83,17.83,0,0,1-4.06-2.39,6.72,6.72,0,0,1-2.27-3.36,3,3,0,0,1,.09-2.08,2,2,0,0,1,1.71-1.26,2.75,2.75,0,0,1,1.92.39c.55.38,1.09.78,1.7,1.22.13-.2.29-.4.41-.62a3.29,3.29,0,0,1,2.6-1.62,2.57,2.57,0,0,1,3,2.66A4.82,4.82,0,0,1,29.76,18.76Zm5.12,4.65a.43.43,0,0,1-.18.15c-.15,0-.35.09-.44,0a.74.74,0,0,1-.27-.47,1.41,1.41,0,0,1,.25-.64c.18-.3.42-.57.62-.86a5.84,5.84,0,0,0,1-4.48,1.82,1.82,0,0,1,0-1.24.48.48,0,0,1,.72.22,4,4,0,0,1,.36,1.11A7.68,7.68,0,0,1,34.88,23.41Z"/><path class="cls-3" d="M25.66,23.14c-.95-.53-1.92-1.05-2.87-1.59a8,8,0,0,1-2.1-1.71,4.48,4.48,0,0,1-1.1-2.18,1.29,1.29,0,0,1,1.67-1.59,4.09,4.09,0,0,1,1.34.7A14.65,14.65,0,0,1,23.92,18l.78.7a.84.84,0,0,0,.46-.92,1.67,1.67,0,0,1,.31-1.33,2.91,2.91,0,0,1,1.46-.95,1.94,1.94,0,0,1,1.68.33,1.2,1.2,0,0,1,.5,1.14,6,6,0,0,1-.28,1.38A16.55,16.55,0,0,1,25.66,23.14Z"/></svg>