<svg id="design" xmlns="http://www.w3.org/2000/svg" viewBox="0 0 36.02 38.88"><defs><style>.cls-1{fill:#172c3f;}.cls-2{fill:#fff;}.cls-3{fill:#fbbf24;}.cls-4{fill:#fcd57e;}</style></defs><path class="cls-1" d="M26.46,25.14S24.61,25,24,25s-1.63.08-2.81.17c-6.71,1.43-13.68,2.44-20.39.46-.13-.86-.23-1.72-.29-2.57S.36,21.35.35,20.49s0-1.57,0-2.35S0,12.46,0,11.68C.36,7.59,0,7.75.87,3.51A2.75,2.75,0,0,1,3.23,1C5.31.88,7.35.63,9.45.48A88.41,88.41,0,0,1,25,.27c.7.07,1.39.16,2.07.26C29,6,30.31,13.25,28.68,18.59c-.45,1.47-3.87,1.26-3.73,2.77A6.34,6.34,0,0,0,26.46,25.14Z"/><path class="cls-2" d="M17.71,20.28c1.78-1.78,3.43-3.49,5.16-5.12a66,66,0,0,1,7-5.82,23.57,23.57,0,0,1,4-2.31,6,6,0,0,1,1-.38.88.88,0,0,1,1.14,1,26.45,26.45,0,0,1-7.24,16.2c-1,1-2,1.94-3,3,.08.16.16.35.27.53a5,5,0,0,1,.48,3.81,8.6,8.6,0,0,1-1.61,3.33,15.31,15.31,0,0,1-4.22,3.8,5.8,5.8,0,0,1-1.19.54c-.41.14-.7-.12-.7-.58a2.6,2.6,0,0,1,.31-1.15c.31-.65.59-1.33.86-2a5.25,5.25,0,0,0-.2-4,2.07,2.07,0,0,0-.52-.7L14.91,26.4a1.76,1.76,0,0,0-.54-.36,6.24,6.24,0,0,0-3.77-.21A14.17,14.17,0,0,0,9,26.52c-.16.07-.3.2-.46.28-.32.17-.59,0-.56-.39a1.5,1.5,0,0,1,.19-.73,19.13,19.13,0,0,1,4.6-5.1c.12-.09.24-.16.37-.24A4.1,4.1,0,0,1,16.81,20C17.12,20.05,17.42,20.17,17.71,20.28Zm14.2-2.52a9.06,9.06,0,0,0-4.05-4.24,2.48,2.48,0,0,0-.41-.15,1.15,1.15,0,0,0-1.29.28C24.62,15.11,23,16.51,21.5,18c-1.19,1.18-2.32,2.44-3.41,3.71a15.29,15.29,0,0,0-2.48,4.05L20,29.84a2.17,2.17,0,0,0,1.21-.63c1.56-1.33,3.12-2.65,4.66-4a30.74,30.74,0,0,0,3.85-4.05A19.38,19.38,0,0,0,31.91,17.76ZM35,7.8a20.86,20.86,0,0,0-7.08,4.58,13.11,13.11,0,0,1,2.48,1.76,14,14,0,0,1,2.13,2.46A27.7,27.7,0,0,0,35,7.8ZM24.91,27.56c-1.44,1.16-2.81,2.28-4.17,3.39A9.56,9.56,0,0,1,21.19,34a15.2,15.2,0,0,1-.85,3.21c.47-.33.77-.52,1.05-.74a12.84,12.84,0,0,0,3.55-4.1,6.31,6.31,0,0,0,.75-2.5A2.92,2.92,0,0,0,24.91,27.56ZM10.23,24.65c.9,0,1.62-.08,2.34,0s1.42.23,2.09.35L17,21.19a3,3,0,0,0-3.39.15A14.16,14.16,0,0,0,10.23,24.65Z"/><path class="cls-2" d="M12.8,30.69c0-.36,0-.56,0-.69a8,8,0,0,1,.8-1c.66-.68,1.33-1.34,2-2a5,5,0,0,1,1-.66.4.4,0,0,1,.38.1.4.4,0,0,1,.07.38,2.27,2.27,0,0,1-.43.63,18.58,18.58,0,0,1-3.13,2.88A7.41,7.41,0,0,1,12.8,30.69Z"/><path class="cls-2" d="M15.8,33.69c0-.36,0-.56,0-.69a8,8,0,0,1,.8-1c.66-.68,1.33-1.34,2-2a5,5,0,0,1,1-.66.4.4,0,0,1,.38.1.4.4,0,0,1,.07.38,2.27,2.27,0,0,1-.43.63,18.58,18.58,0,0,1-3.13,2.88A7.41,7.41,0,0,1,15.8,33.69Z"/><path class="cls-2" d="M11.71,35c0-.62,0-1,.1-1.18A12.19,12.19,0,0,1,13.09,32q1.59-1.77,3.27-3.44A8.93,8.93,0,0,1,18,27.38a.63.63,0,0,1,.6.16.78.78,0,0,1,.11.66A4.69,4.69,0,0,1,18,29.29a32.56,32.56,0,0,1-5,5A10.65,10.65,0,0,1,11.71,35Z"/><path class="cls-3" d="M31.91,17.76a19.38,19.38,0,0,1-2.2,3.39,30.74,30.74,0,0,1-3.85,4.05c-1.54,1.36-3.1,2.68-4.66,4a2.17,2.17,0,0,1-1.21.63l-4.38-4.09a15.29,15.29,0,0,1,2.48-4.05c1.09-1.27,2.22-2.53,3.41-3.71,1.51-1.48,3.12-2.88,4.66-4.34a1.15,1.15,0,0,1,1.29-.28,2.48,2.48,0,0,1,.41.15A9.06,9.06,0,0,1,31.91,17.76Zm-6.13.07a1.84,1.84,0,0,0-1.85.75,2.43,2.43,0,0,0,.79,3.27,2.58,2.58,0,0,0,2.79-.25A1.7,1.7,0,0,0,28,19.43,3,3,0,0,0,25.78,17.83Z"/><path class="cls-3" d="M35,7.8a27.7,27.7,0,0,1-2.47,8.8,14,14,0,0,0-2.13-2.46,13.11,13.11,0,0,0-2.48-1.76A20.86,20.86,0,0,1,35,7.8Z"/><path class="cls-4" d="M24.91,27.56a2.92,2.92,0,0,1,.78,2.33,6.31,6.31,0,0,1-.75,2.5,12.84,12.84,0,0,1-3.55,4.1c-.28.22-.58.41-1.05.74A15.2,15.2,0,0,0,21.19,34,9.56,9.56,0,0,0,20.74,31C22.1,29.84,23.47,28.72,24.91,27.56Z"/><path class="cls-4" d="M10.23,24.65a14.16,14.16,0,0,1,3.34-3.31A3,3,0,0,1,17,21.19L14.66,25c-.67-.12-1.37-.29-2.09-.35S11.13,24.63,10.23,24.65Z"/><path class="cls-2" d="M25.78,17.83A3,3,0,0,1,28,19.43a1.7,1.7,0,0,1-.48,2.17,2.58,2.58,0,0,1-2.79.25,2.43,2.43,0,0,1-.79-3.27A1.84,1.84,0,0,1,25.78,17.83Zm-1.19,2a1.14,1.14,0,0,0,.8,1.25,1.6,1.6,0,0,0,1.66-.53.61.61,0,0,0,0-.8,1.84,1.84,0,0,0-1.35-.81A.93.93,0,0,0,24.59,19.79Z"/><path class="cls-4" d="M24.59,19.79a.93.93,0,0,1,1.12-.89,1.84,1.84,0,0,1,1.35.81.61.61,0,0,1,0,.8,1.6,1.6,0,0,1-1.66.53A1.14,1.14,0,0,1,24.59,19.79Z"/></svg>